<?xml version="1.0" encoding="UTF-8"?>
<svg width="19px" height="19px" viewBox="0 0 19 19" version="1.1" xmlns="http://www.w3.org/2000/svg" xmlns:xlink="http://www.w3.org/1999/xlink">
    <!-- Generator: Sketch 50.2 (55047) - http://www.bohemiancoding.com/sketch -->
    <title>Slice</title>
    <desc>Created with Sketch.</desc>
    <defs>
        <polygon id="path-1" points="0.0521473361 0.0526315789 7.95326316 0.0526315789 7.95326316 7.94750003 0.0521473361 7.94750003"></polygon>
    </defs>
    <g id="Page-1" stroke="none" stroke-width="1" fill="none" fill-rule="evenodd">
        <g id="Group" transform="translate(2.000000, 2.000000)">
            <path d="M14.3181818,8.86363636 C13.9416,8.86363636 13.6363636,9.16887273 13.6363636,9.54545455 L13.6418182,13.6363636 L1.36363636,13.6418182 L1.35818182,1.36363636 L5.45454545,1.36363636 C5.83112727,1.36363636 6.13636364,1.0584 6.13636364,0.681818182 C6.13636364,0.305236364 5.83112727,0 5.45454545,0 L1.35818182,0 C0.608509091,0.00109090909 0.00109090909,0.608509091 0,1.35818182 L0,13.6418182 C0,14.3904 0.609490909,15 1.35818182,15 L13.6418182,15 C14.3914909,14.9988 14.9988,14.3914909 15,13.6418182 L15,9.54545455 C15,9.16887273 14.6947636,8.86363636 14.3181818,8.86363636" id="Fill-1" fill="#9B9B9B"></path>
            <g id="Group-5" transform="translate(7.000000, 0.000000)">
                <mask id="mask-2" fill="white">
                    <use xlink:href="#path-1"></use>
                </mask>
                <g id="Clip-4"></g>
                <path d="M6.64277895,0.0526315789 L3.34214737,0.0526315789 C2.97867368,0.0526315789 2.68425263,0.347157895 2.68425263,0.710526316 C2.68425263,1.07389474 2.97867368,1.36842105 3.34214737,1.36842105 L5.70530526,1.36442105 L0.244778947,6.82431579 C-0.0121684211,7.08136842 -0.0120631579,7.498 0.245094737,7.75494737 C0.502147368,8.01178947 0.918778947,8.01168421 1.17562105,7.75463158 L6.63751579,2.29347368 L6.63751579,4.66315789 C6.63751579,5.02652632 6.93204211,5.32105263 7.29541053,5.32105263 C7.65867368,5.32105263 7.95330526,5.02652632 7.95330526,4.66315789 L7.95330526,1.36315789 C7.95214737,0.639789474 7.36604211,0.0536842105 6.64277895,0.0526315789" id="Fill-3" fill="#9B9B9B" mask="url(#mask-2)"></path>
            </g>
        </g>
    </g>
</svg>