<?xml version="1.0" encoding="UTF-8"?>
<svg width="37px" height="37px" viewBox="0 0 37 37" version="1.1" xmlns="http://www.w3.org/2000/svg" xmlns:xlink="http://www.w3.org/1999/xlink">
    <!-- Generator: Sketch 50.2 (55047) - http://www.bohemiancoding.com/sketch -->
    <title>Slice</title>
    <desc>Created with Sketch.</desc>
    <defs></defs>
    <g id="Page-1" stroke="none" stroke-width="1" fill="none" fill-rule="evenodd">
        <path d="M32.3583726,17.4371872 C32.9251079,16.88033 33.1294503,16.1904082 32.9191036,15.5461971 C32.7093379,14.9023733 32.1393098,14.4665721 31.3548675,14.3515205 L24.1581422,13.2982373 C23.8943371,13.2594994 23.459698,12.9399118 23.3409664,12.6966378 L20.1208792,6.12572311 C19.7699139,5.40907213 19.1791611,5 18.49873,5 C17.8196548,5 17.2277398,5.40907213 16.8790988,6.12572311 L13.6590116,12.6966378 C13.5416358,12.9399118 13.106803,13.2583373 12.8418358,13.2982373 L5.64511047,14.3515205 C4.86183032,14.4665721 4.29160856,14.9023733 4.08106813,15.5461971 C3.870334,16.1904082 4.07506375,16.8791679 4.64141172,17.4371872 L9.8504959,22.5529131 C10.0430232,22.741954 10.2113393,23.2649155 10.1652413,23.5335628 L8.93647536,30.7558552 C8.80224857,31.5437839 9.04068029,32.2242149 9.59269523,32.6224404 C9.87722504,32.8283323 10.2064971,32.9311814 10.5563003,32.9311814 C10.8807301,32.9311814 11.2220109,32.8426653 11.5609675,32.6648584 L17.9988175,29.2534061 C18.2275648,29.1323502 18.7722195,29.1323502 19.0023226,29.2534061 L25.4388168,32.6623405 C26.1399727,33.0351927 26.8577858,33.0195038 27.4084449,32.6224404 C27.9592977,32.2242149 28.1979231,31.5451397 28.0646648,30.7581794 L26.8358989,23.5335628 C26.7874765,23.2649155 26.9569548,22.741954 27.1506442,22.5529131 L32.3583726,17.4371872 Z" id="Fill-1" fill="#B4B4B4"></path>
    </g>
</svg>