<?xml version="1.0" encoding="UTF-8"?>
<svg width="37px" height="37px" viewBox="0 0 37 37" version="1.1" xmlns="http://www.w3.org/2000/svg" xmlns:xlink="http://www.w3.org/1999/xlink">
    <!-- Generator: Sketch 50.2 (55047) - http://www.bohemiancoding.com/sketch -->
    <title>Slice</title>
    <desc>Created with Sketch.</desc>
    <defs>
        <polygon id="path-1" points="0 0 31 0 31 30 0 30"></polygon>
    </defs>
    <g id="Page-1" stroke="none" stroke-width="1" fill="none" fill-rule="evenodd">
        <g id="Group" transform="translate(3.000000, 3.000000)">
            <mask id="mask-2" fill="white">
                <use xlink:href="#path-1"></use>
            </mask>
            <g id="Clip-2"></g>
            <path d="M2.6323127,9.13043478 C1.18095063,9.13043478 0,10.3043478 0,11.748313 L0,27.3821217 C0,28.8248348 1.17444228,30 2.61782637,30 L6.56083681,30 L6.56083681,9.13043478 L2.6323127,9.13043478 Z M30.2730657,10.3669565 C29.6341977,9.58038261 28.6382101,9.13043478 27.5424979,9.13043478 L20.776963,9.13043478 C21.7269722,6.39005217 20.9974071,3.21913043 20.9554177,3.04424348 C20.9165776,2.88813913 20.847925,2.7405913 20.7534489,2.60994783 C20.2017088,1.05015652 18.721584,0.00459130435 17.0581757,0 C14.9734042,0.0052173913 13.2554097,1.62824348 13.1441379,3.69787826 L13.1216736,3.69787826 L13.1216736,4.56521739 C13.1174747,5.86789565 12.5501985,7.10608696 11.5640785,7.96445217 C10.9079948,8.54337391 10.0919317,8.93342609 9.18517154,9.06386087 L9.18517154,30 L24.9378982,30 C26.2643419,30 27.5227629,28.9826087 27.8036717,27.6847304 L30.9159227,13.2469565 C31.1416155,12.1970087 30.9081547,11.148313 30.2730657,10.3669565 Z" id="Fill-1" fill="#B4B4B4" mask="url(#mask-2)"></path>
        </g>
    </g>
</svg>