<?xml version="1.0" encoding="UTF-8"?>
<svg width="19px" height="19px" viewBox="0 0 19 19" version="1.1" xmlns="http://www.w3.org/2000/svg" xmlns:xlink="http://www.w3.org/1999/xlink">
    <!-- Generator: Sketch 50.2 (55047) - http://www.bohemiancoding.com/sketch -->
    <title>Slice</title>
    <desc>Created with Sketch.</desc>
    <defs></defs>
    <g id="Page-1" stroke="none" stroke-width="1" fill="none" fill-rule="evenodd">
        <g id="message" transform="translate(3.000000, 3.000000)" fill="#B4B4B4" fill-rule="nonzero">
            <path d="M11.809593,9.44081336 L11.809593,9.77124183 L8.40843023,9.77124183 C7.86046512,9.77124183 7.2747093,10.1205519 7.02906977,10.6020334 L6.49055233,11.6122004 L5.95203488,10.6020334 C5.69694767,10.1205519 5.12063953,9.77124183 4.57267442,9.77124183 L1.17151163,9.77124183 L1.17151163,1.18010167 L11.8001453,1.18010167 L11.8001453,9.44081336 L11.809593,9.44081336 Z M11.9135174,0 L1.08648256,0 C0.49127907,0 0,0.509803922 0,1.1328976 L0,9.82788671 C0,10.4509804 0.49127907,10.9607843 1.08648256,10.9607843 L4.58212209,10.9607843 C4.69549419,10.9607843 4.875,11.0646333 4.92223837,11.1590414 L5.62136628,12.4901961 L5.67805233,12.5751634 C5.88590116,12.8395062 6.18822674,13 6.5,13 C6.81177326,13 7.11409884,12.848947 7.32194767,12.5751634 L8.07776163,11.1684822 C8.125,11.0835149 8.29505814,10.9702251 8.41787791,10.9702251 L11.9135174,10.9702251 C12.5087209,10.9702251 13,10.4604212 13,9.83732752 L13,1.1328976 C13,0.509803922 12.5087209,0 11.9135174,0 Z" id="Shape"></path>
            <path d="M2.99465241,5 C2.73796791,5 2.5026738,5.09677419 2.3315508,5.25806452 C2.11764706,5.4516129 2,5.72043011 2,6 C2,6.30107527 2.12834225,6.55913978 2.3315508,6.74193548 C2.51336898,6.91397849 2.7486631,7 2.99465241,7 C3.55080214,7 4,6.5483871 4,5.98924731 C4,5.4516129 3.55080214,5 2.99465241,5 M9.00534759,5 C8.44919786,5 8,5.44680851 8,6 C8,6.55319149 8.44919786,7 9.00534759,7 C9.26203209,7 9.4973262,6.90425532 9.6684492,6.74468085 C9.87165775,6.56382979 10,6.29787234 10,6.0106383 C10,5.72340426 9.88235294,5.45744681 9.6684492,5.27659574 C9.48663102,5.09574468 9.2513369,5 9.00534759,5 M6,5 C5.74193548,5 5.50537634,5.09677419 5.33333333,5.25806452 C5.11827957,5.4516129 5,5.72043011 5,6 C5,6.30107527 5.12903226,6.55913978 5.33333333,6.74193548 C5.51612903,6.91397849 5.75268817,7 6,7 C6.25806452,7 6.49462366,6.90322581 6.66666667,6.74193548 C6.87096774,6.55913978 7,6.29032258 7,6 C7,5.70967742 6.88172043,5.44086022 6.66666667,5.25806452 C6.48387097,5.09677419 6.24731183,5 6,5" id="Shape"></path>
        </g>
    </g>
</svg>