<?xml version="1.0" encoding="UTF-8"?>
<svg width="24px" height="24px" viewBox="0 0 24 24" version="1.1" xmlns="http://www.w3.org/2000/svg" xmlns:xlink="http://www.w3.org/1999/xlink">
    <!-- Generator: Sketch 50.2 (55047) - http://www.bohemiancoding.com/sketch -->
    <title>Slice</title>
    <desc>Created with Sketch.</desc>
    <defs></defs>
    <g id="Page-1" stroke="none" stroke-width="1" fill="none" fill-rule="evenodd">
        <g id="Group-2" transform="translate(-185.000000, 1.000000)" fill="#B4B4B4">
            <g id="message" transform="translate(0.000000, 0.555556)">
                <path d="M202.082762,19.70643 C201.063119,19.70643 200.233636,18.8768256 200.233636,17.8571824 C200.233636,16.8374171 201.063119,16.0079348 202.082762,16.0079348 C203.102405,16.0079348 203.932009,16.8374171 203.932009,17.8571824 C203.932009,18.8768256 203.102405,19.70643 202.082762,19.70643 M190.432661,12.2048389 C189.572176,12.2048389 188.872316,11.5049784 188.872316,10.6446163 C188.872316,9.78425422 189.572176,9.08427171 190.432661,9.08427171 C191.293023,9.08427171 191.992883,9.78425422 191.992883,10.6446163 C191.992883,11.5049784 191.293023,12.2048389 190.432661,12.2048389 M201.528024,1.8723159 C202.388386,1.8723159 203.088247,2.57254252 203.088247,3.43314874 C203.088247,4.29351085 202.388386,4.99349336 201.528024,4.99349336 C200.667662,4.99349336 199.967802,4.29351085 199.967802,3.43314874 C199.967802,2.57254252 200.667662,1.8723159 201.528024,1.8723159 M202.082762,14.1586872 C201.050913,14.1586872 200.116464,14.5836809 199.44492,15.2676743 L193.623897,11.9091009 C193.779517,11.5175501 193.865321,11.0908475 193.865321,10.6446163 C193.865321,10.2688105 193.804416,9.90704103 193.692248,9.56833982 L199.162486,5.91830025 C199.778617,6.50501619 200.612005,6.86580927 201.528024,6.86580927 C203.420845,6.86580927 204.960685,5.3259698 204.960685,3.43314874 C204.960685,1.54008358 203.420845,0 201.528024,0 C199.635203,0 198.095364,1.54008358 198.095364,3.43314874 C198.095364,3.81029712 198.156757,4.17340923 198.269657,4.51320894 L192.801128,8.16227208 C192.184631,7.57384737 191.350144,7.2119558 190.432661,7.2119558 C188.539839,7.2119558 187,8.75191733 187,10.6446163 C187,12.5374374 188.539839,14.0772769 190.432661,14.0772769 C191.275325,14.0772769 192.047808,13.7718965 192.645875,13.2662248 L198.574183,16.6868019 C198.451152,17.0546741 198.384267,17.4482999 198.384267,17.8571824 C198.384267,19.8965909 200.043475,21.5555556 202.082762,21.5555556 C204.12217,21.5555556 205.781257,19.8965909 205.781257,17.8571824 C205.781257,15.817896 204.122048,14.1586872 202.082762,14.1586872" id="Fill-1"></path>
            </g>
        </g>
    </g>
</svg>